<?xml version="1.0" encoding="UTF-8"?>
<svg width="30px" height="30px" viewBox="0 0 30 30" version="1.1" xmlns="http://www.w3.org/2000/svg" xmlns:xlink="http://www.w3.org/1999/xlink">
    <title>Icon_quanlyungdung</title>
    <g id="Working" stroke="none" stroke-width="1" fill="none" fill-rule="evenodd">
        <g id="paymePortal_2_Dashboard_1_Hover-popup-card" transform="translate(-1388.000000, -181.000000)">
            <g id="Icon_quanlyungdung" transform="translate(1388.000000, 181.000000)">
                <g id="icon_quanlyungdung-01" transform="translate(5.000000, 5.000000)" fill="#036E04" fill-rule="nonzero">
                    <path d="M7.00361156,11.5449438 C7.90561755,11.5449438 8.63683788,12.2761642 8.63683788,13.1781701 L8.63683788,18.2054575 C8.63683788,19.1074635 7.90561755,19.8386838 7.00361156,19.8386838 L1.97632424,19.8386838 C1.07431825,19.8386838 0.343097913,19.1074635 0.343097913,18.2054575 L0.343097913,13.1781701 C0.343097913,12.2761642 1.07431825,11.5449438 1.97632424,11.5449438 L7.00361156,11.5449438 Z M18.1011236,11.5449438 C19.0031296,11.5449438 19.7343499,12.2761642 19.7343499,13.1781701 L19.7343499,18.2054575 C19.7343499,19.1074635 19.0031296,19.8386838 18.1011236,19.8386838 L13.0738363,19.8386838 C12.1718303,19.8386838 11.44061,19.1074635 11.44061,18.2054575 L11.44061,13.1781701 C11.44061,12.2761642 12.1718303,11.5449438 13.0738363,11.5449438 L18.1011236,11.5449438 Z M18.1011236,1.105939 C19.0031296,1.105939 19.7343499,1.83715934 19.7343499,2.73916533 L19.7343499,7.76645265 C19.7343499,8.66845864 19.0031296,9.39967897 18.1011236,9.39967897 L13.0738363,9.39967897 C12.1718303,9.39967897 11.44061,8.66845864 11.44061,7.76645265 L11.44061,2.73916533 C11.44061,1.83715934 12.1718303,1.105939 13.0738363,1.105939 L18.1011236,1.105939 Z M6.51243981,6.49398074 C6.7616342,6.49162444 7.00902608,6.53641912 7.24157303,6.62600321 C7.4534573,6.70769017 7.64750886,6.82965375 7.81300161,6.98515249 C7.97113419,7.13740412 8.10618659,7.3119313 8.21388443,7.50321027 C8.3223061,7.69300454 8.41079253,7.89351102 8.47792937,8.10152488 C8.54417738,8.31189196 8.59659003,8.52636827 8.63483146,8.74357945 C8.67290421,8.95468253 8.69969451,9.16766541 8.71508828,9.38162119 L8.71508828,9.38162119 L8.71508828,9.39967897 L0.329855538,9.40008026 L0.329855538,9.40008026 L0.329855538,9.38242376 C0.344972018,9.16830772 0.371764143,8.95517638 0.41011236,8.74398074 C0.448160307,8.52672897 0.500576046,8.31224001 0.567014446,8.10192616 C0.634009691,7.89392303 0.722362005,7.69341572 0.830658106,7.50361156 C0.9372165,7.31242623 1.07104401,7.13777457 1.22792937,6.98515249 C1.39333794,6.82964364 1.58741899,6.70779782 1.79935795,6.62640449 C2.03181233,6.53644867 2.27925036,6.49150946 2.52849117,6.49398074 C2.63162119,6.49398074 2.73154093,6.53651685 2.92375602,6.6617175 C3.04414125,6.7399679 3.18258427,6.82945425 3.3358748,6.92736758 C3.50301889,7.02727295 3.68187793,7.10612189 3.86837881,7.16211878 C4.29158056,7.30282453 4.74894913,7.30282453 5.17215088,7.16211878 C5.35880458,7.10619152 5.53780481,7.02733977 5.70505618,6.92736758 C5.85995185,6.82865169 5.99839486,6.73916533 6.11677368,6.6617175 C6.30939005,6.53651685 6.40930979,6.49398074 6.51243981,6.49398074 Z M4.4899679,0.113563403 C5.36516854,0.113563403 6.12520064,0.42776886 6.74558587,1.04815409 C7.36597111,1.66853933 7.68017657,2.42696629 7.68017657,3.30377207 C7.68017657,4.18057785 7.36556982,4.93900482 6.74558587,5.55939005 C6.12560193,6.17977528 5.36637239,6.49398074 4.4899679,6.49398074 C3.6135634,6.49398074 2.85553772,6.179374 2.23515249,5.55939005 C1.61476726,4.9394061 1.3005618,4.18017657 1.3005618,3.30377207 C1.3005618,2.42736758 1.61597111,1.66693419 2.23515249,1.04815409 C2.85433387,0.429373997 3.61476726,0.113563403 4.4899679,0.113563403 Z" id="Combined-Shape"></path>
                </g>
                <rect id="Rectangle" stroke="#036E04" x="0.5" y="0.5" width="29" height="29" rx="4"></rect>
            </g>
        </g>
    </g>
</svg>