<svg xmlns="http://www.w3.org/2000/svg" width="28" height="20" viewBox="0 0 28 20">
    <g fill="none" fill-rule="evenodd">
        <g fill="#181A41">
            <g>
                <path d="M26.475 11.127H1.15C.516 11.127 0 10.612 0 9.977c0-.636.516-1.152 1.151-1.152h25.324c.635 0 1.15.516 1.15 1.151 0 .636-.515 1.151-1.15 1.151zM26.475 2.302H1.15C.516 2.302 0 1.786 0 1.152 0 .515.516 0 1.151 0h25.324c.635 0 1.15.516 1.15 1.151s-.515 1.151-1.15 1.151zM26.475 19.952H1.15C.516 19.952 0 19.436 0 18.8c0-.636.516-1.151 1.151-1.151h25.324c.635 0 1.15.515 1.15 1.15 0 .636-.515 1.152-1.15 1.152z" transform="translate(-332 -20) translate(332 20)"/>
            </g>
        </g>
    </g>
</svg>
