<?xml version="1.0" encoding="UTF-8"?>
<svg width="40px" height="40px" viewBox="0 0 40 40" version="1.1" xmlns="http://www.w3.org/2000/svg" xmlns:xlink="http://www.w3.org/1999/xlink">
    <title>button/uncheck copy</title>
    <g id="Working" stroke="none" stroke-width="1" fill="none" fill-rule="evenodd">
        <g id="paymePortal_2_Dashboard_1_Hover-popup-card" transform="translate(-1567.000000, -773.000000)">
            <g id="button/uncheck-copy" transform="translate(1567.000000, 773.000000)">
                <rect id="Rectangle-Copy-2" fill="#FFE3E3" x="0" y="0" width="40" height="40" rx="6"></rect>
                <path d="M15.75,12.8235294 L27.75,25.5294118 C28.4516094,26.2722923 28.4516094,27.4335901 27.75,28.1764706 C27.0979972,28.8668265 26.0098004,28.8979179 25.3194444,28.245915 C25.2956398,28.2234328 25.2724822,28.2002753 25.25,28.1764706 L13.25,15.4705882 C12.5483906,14.7277077 12.5483906,13.5664099 13.25,12.8235294 C13.9020028,12.1331735 14.9901996,12.1020821 15.6805556,12.754085 C15.7043602,12.7765672 15.7275178,12.7997247 15.75,12.8235294 Z" id="Rectangle" fill="#E83F3F"></path>
                <path d="M27.75,15.4705882 L15.75,28.1764706 C15.0979972,28.8668265 14.0098004,28.8979179 13.3194444,28.245915 C13.2956398,28.2234328 13.2724822,28.2002753 13.25,28.1764706 C12.5483906,27.4335901 12.5483906,26.2722923 13.25,25.5294118 L25.25,12.8235294 C25.9020028,12.1331735 26.9901996,12.1020821 27.6805556,12.754085 C27.7043602,12.7765672 27.7275178,12.7997247 27.75,12.8235294 C28.4516094,13.5664099 28.4516094,14.7277077 27.75,15.4705882 Z" id="Rectangle" fill="#E83F3F"></path>
            </g>
        </g>
    </g>
</svg>