<?xml version="1.0" encoding="UTF-8"?>
<svg width="22px" height="22px" viewBox="0 0 22 22" version="1.1" xmlns="http://www.w3.org/2000/svg" xmlns:xlink="http://www.w3.org/1999/xlink">
    <title>user (6)</title>
    <g id="Working" stroke="none" stroke-width="1" fill="none" fill-rule="evenodd">
        <g id="paymePortal_2_Dashboard_1_Hover-popup-card" transform="translate(-1431.000000, -218.000000)" fill="#036E04" fill-rule="nonzero">
            <g id="user-(6)" transform="translate(1431.000000, 218.000000)">
                <path d="M10.5146732,11.0138249 C4.72469261,11.0138249 0.0140389105,15.7245214 0.0140389105,21.5144591 C0.0140389105,21.7664747 0.218587549,21.9710233 0.470603113,21.9710233 C0.722618677,21.9710233 0.927167315,21.7664747 0.927167315,21.5144591 C0.927167315,16.2276109 5.2278677,11.9269105 10.514716,11.9269105 C15.8015642,11.9269105 20.1022646,16.2276109 20.1022646,21.5144591 C20.1022646,21.7664747 20.3068132,21.9710233 20.5588288,21.9710233 C20.8108444,21.9710233 21.015393,21.7664747 21.015393,21.5144591 C21.015393,15.7235798 16.3046537,11.0138249 10.5146732,11.0138249 Z" id="Path"></path>
                <path d="M10.5146732,0 C7.74614008,0 5.49263813,2.25260311 5.49263813,5.02203502 C5.49263813,7.79146693 7.74618288,10.04407 10.5146732,10.04407 C13.2831634,10.04407 15.5367082,7.79146693 15.5367082,5.02203502 C15.5367082,2.25260311 13.2832062,0 10.5146732,0 Z M10.5146732,9.13098444 C8.24927237,9.13098444 6.40572374,7.2874358 6.40572374,5.02203502 C6.40572374,2.75663424 8.24927237,0.913085603 10.5146732,0.913085603 C12.7800739,0.913085603 14.6236226,2.75663424 14.6236226,5.02203502 C14.6236226,7.2874358 12.7800739,9.13098444 10.5146732,9.13098444 Z" id="Shape"></path>
            </g>
        </g>
    </g>
</svg>